<svg xmlns="http://www.w3.org/2000/svg" width="136.2" height="13.997" viewBox="0 0 136.2 13.997">
  <g transform="translate(-687.323 -399.488)">
    <path d="M-88.269-4.515a6.131,6.131,0,0,1-2.523-.512,4.823,4.823,0,0,1-1.885-1.46l1.74-2.088a3.127,3.127,0,0,0,2.513,1.489q1.914,0,1.914-2.243v-6.438h-4.756V-18.28H-83.4V-9.5a5.105,5.105,0,0,1-1.237,3.741A4.9,4.9,0,0,1-88.269-4.515Zm12.7-.077a6.237,6.237,0,0,1-2.948-.686,5.1,5.1,0,0,1-2.04-1.9,5.247,5.247,0,0,1-.735-2.765,5.247,5.247,0,0,1,.735-2.765,5.1,5.1,0,0,1,2.04-1.9,6.237,6.237,0,0,1,2.948-.686,6.179,6.179,0,0,1,2.939.686,5.118,5.118,0,0,1,2.03,1.9,5.247,5.247,0,0,1,.735,2.765A5.247,5.247,0,0,1-70.6-7.183a5.118,5.118,0,0,1-2.03,1.9A6.179,6.179,0,0,1-75.567-4.592Zm0-2.475a2.512,2.512,0,0,0,1.9-.783,2.919,2.919,0,0,0,.744-2.1,2.919,2.919,0,0,0-.744-2.1,2.512,2.512,0,0,0-1.9-.783,2.543,2.543,0,0,0-1.914.783,2.9,2.9,0,0,0-.754,2.1,2.9,2.9,0,0,0,.754,2.1A2.543,2.543,0,0,0-75.567-7.067Zm12.373,2.552a11.073,11.073,0,0,1-3.1-.435A7.277,7.277,0,0,1-68.7-6.081l1.063-2.359a7.216,7.216,0,0,0,2.069,1.025,7.77,7.77,0,0,0,2.4.387,3.83,3.83,0,0,0,1.972-.4,1.2,1.2,0,0,0,.638-1.054,1.007,1.007,0,0,0-.377-.8,2.858,2.858,0,0,0-.967-.512q-.59-.193-1.595-.425a22.048,22.048,0,0,1-2.533-.735,4.115,4.115,0,0,1-1.692-1.179,3.185,3.185,0,0,1-.706-2.165,3.767,3.767,0,0,1,.638-2.136,4.292,4.292,0,0,1,1.924-1.518,7.849,7.849,0,0,1,3.142-.561A10.4,10.4,0,0,1-60.2-18.2a7.482,7.482,0,0,1,2.165.889L-59-14.935A7.546,7.546,0,0,0-62.75-16a3.517,3.517,0,0,0-1.943.425,1.3,1.3,0,0,0-.628,1.121,1.1,1.1,0,0,0,.725,1.034,11.383,11.383,0,0,0,2.214.667,22.048,22.048,0,0,1,2.533.735,4.194,4.194,0,0,1,1.692,1.16,3.11,3.11,0,0,1,.706,2.146A3.7,3.7,0,0,1-58.1-6.593a4.351,4.351,0,0,1-1.943,1.518A7.921,7.921,0,0,1-63.194-4.515Zm17.864-5.394q0,.058-.058.812h-7.868A2.451,2.451,0,0,0-52.252-7.57a3.33,3.33,0,0,0,1.972.561,3.993,3.993,0,0,0,1.44-.242,3.489,3.489,0,0,0,1.17-.764l1.6,1.74a5.393,5.393,0,0,1-4.292,1.682,6.789,6.789,0,0,1-3.113-.686,5.031,5.031,0,0,1-2.088-1.9,5.247,5.247,0,0,1-.735-2.765,5.315,5.315,0,0,1,.725-2.755,5.079,5.079,0,0,1,1.991-1.914,5.847,5.847,0,0,1,2.832-.686,5.8,5.8,0,0,1,2.765.657,4.8,4.8,0,0,1,1.943,1.885A5.621,5.621,0,0,1-45.331-9.909Zm-5.394-3.113a2.6,2.6,0,0,0-1.721.58,2.469,2.469,0,0,0-.851,1.585h5.123a2.494,2.494,0,0,0-.851-1.576A2.543,2.543,0,0,0-50.725-13.021Zm12.431,8.429a6.4,6.4,0,0,1-2.987-.686,5.139,5.139,0,0,1-2.069-1.9,5.2,5.2,0,0,1-.744-2.765,5.2,5.2,0,0,1,.744-2.765,5.139,5.139,0,0,1,2.069-1.9,6.4,6.4,0,0,1,2.987-.686,5.787,5.787,0,0,1,2.871.686,4.07,4.07,0,0,1,1.788,1.962L-35.974-11.4a2.557,2.557,0,0,0-2.339-1.431,2.647,2.647,0,0,0-1.953.773,2.847,2.847,0,0,0-.773,2.107,2.847,2.847,0,0,0,.773,2.107,2.647,2.647,0,0,0,1.953.773A2.531,2.531,0,0,0-35.974-8.5l2.339,1.276a4.152,4.152,0,0,1-1.788,1.933A5.723,5.723,0,0,1-38.293-4.592Zm9.28-9.183a3.354,3.354,0,0,1,1.46-1.141,5.417,5.417,0,0,1,2.117-.387v2.784q-.5-.039-.677-.039a2.765,2.765,0,0,0-2.03.725,2.93,2.93,0,0,0-.735,2.175v4.911h-3.016v-10.4h2.881Zm15.466,3.867q0,.058-.058.812h-7.868A2.451,2.451,0,0,0-20.469-7.57a3.33,3.33,0,0,0,1.972.561,3.993,3.993,0,0,0,1.44-.242,3.489,3.489,0,0,0,1.17-.764l1.6,1.74a5.393,5.393,0,0,1-4.292,1.682,6.789,6.789,0,0,1-3.113-.686,5.031,5.031,0,0,1-2.088-1.9,5.247,5.247,0,0,1-.735-2.765,5.315,5.315,0,0,1,.725-2.755,5.079,5.079,0,0,1,1.991-1.914,5.847,5.847,0,0,1,2.832-.686,5.8,5.8,0,0,1,2.765.657,4.8,4.8,0,0,1,1.943,1.885A5.621,5.621,0,0,1-13.547-9.909Zm-5.394-3.113a2.6,2.6,0,0,0-1.721.58,2.469,2.469,0,0,0-.851,1.585h5.123a2.494,2.494,0,0,0-.851-1.576A2.543,2.543,0,0,0-18.941-13.021ZM-4.828-5.25a3.1,3.1,0,0,1-1.092.493,5.523,5.523,0,0,1-1.363.164,4.049,4.049,0,0,1-2.871-.947,3.625,3.625,0,0,1-1.015-2.784V-12.6h-1.6v-2.32h1.6v-2.533h3.016v2.533h2.591v2.32H-8.153v4.234a1.42,1.42,0,0,0,.338,1.015,1.254,1.254,0,0,0,.957.358A1.938,1.938,0,0,0-5.64-7.376Z" transform="translate(780 418)" fill="#333"/>
    <path d="M28.9-3.486a1.813,1.813,0,0,1-1.334-.541,1.836,1.836,0,0,1-.541-1.353,1.765,1.765,0,0,1,.541-1.344A1.867,1.867,0,0,1,28.9-7.236a1.867,1.867,0,0,1,1.334.512,1.765,1.765,0,0,1,.541,1.344,1.836,1.836,0,0,1-.541,1.353A1.813,1.813,0,0,1,28.9-3.486Zm8.816,0a6.4,6.4,0,0,1-2.987-.686,5.139,5.139,0,0,1-2.069-1.9,5.2,5.2,0,0,1-.744-2.765,5.2,5.2,0,0,1,.744-2.765,5.139,5.139,0,0,1,2.069-1.9,6.4,6.4,0,0,1,2.987-.686,5.787,5.787,0,0,1,2.871.686,4.07,4.07,0,0,1,1.788,1.962l-2.339,1.257A2.557,2.557,0,0,0,37.7-11.721a2.647,2.647,0,0,0-1.953.773,2.847,2.847,0,0,0-.773,2.107,2.847,2.847,0,0,0,.773,2.107A2.647,2.647,0,0,0,37.7-5.96a2.531,2.531,0,0,0,2.339-1.431l2.339,1.276a4.152,4.152,0,0,1-1.788,1.933A5.723,5.723,0,0,1,37.718-3.486Zm11.213,0a6.237,6.237,0,0,1-2.948-.686,5.1,5.1,0,0,1-2.04-1.9,5.247,5.247,0,0,1-.735-2.765,5.247,5.247,0,0,1,.735-2.765,5.1,5.1,0,0,1,2.04-1.9,6.237,6.237,0,0,1,2.948-.686,6.179,6.179,0,0,1,2.939.686,5.118,5.118,0,0,1,2.03,1.9,5.247,5.247,0,0,1,.735,2.765A5.247,5.247,0,0,1,53.9-6.076a5.118,5.118,0,0,1-2.03,1.9A6.179,6.179,0,0,1,48.931-3.486Zm0-2.475a2.512,2.512,0,0,0,1.9-.783,2.919,2.919,0,0,0,.744-2.1,2.919,2.919,0,0,0-.744-2.1,2.512,2.512,0,0,0-1.9-.783,2.543,2.543,0,0,0-1.914.783,2.9,2.9,0,0,0-.754,2.1,2.9,2.9,0,0,0,.754,2.1A2.543,2.543,0,0,0,48.931-5.96ZM69.965-14.2a4.193,4.193,0,0,1,3.1,1.15,4.687,4.687,0,0,1,1.15,3.451V-3.64H71.2V-9.131a2.818,2.818,0,0,0-.512-1.846,1.8,1.8,0,0,0-1.46-.609,2.151,2.151,0,0,0-1.682.686,2.958,2.958,0,0,0-.619,2.04v5.22H63.914V-9.131q0-2.455-1.972-2.455a2.128,2.128,0,0,0-1.663.686,2.958,2.958,0,0,0-.619,2.04v5.22H56.645v-10.4h2.881v1.2a3.807,3.807,0,0,1,1.421-1.005,4.783,4.783,0,0,1,1.846-.348,4.472,4.472,0,0,1,1.991.435,3.526,3.526,0,0,1,1.431,1.266,4.266,4.266,0,0,1,1.614-1.257A5.093,5.093,0,0,1,69.965-14.2Z" transform="translate(749.305 416.893)" fill="#fe8d00"/>
  </g>
</svg>

