<svg width="48" height="48" viewBox="0 0 48 48" fill="none" xmlns="http://www.w3.org/2000/svg">
<path d="M24 0C37.2548 0 48 10.7452 48 24C48 37.2548 37.2548 48 24 48C10.7452 48 0 37.2548 0 24C0 10.7452 10.7452 0 24 0ZM24 7.16699C23.4479 7.16717 23 7.61482 23 8.16699C22.9999 9.57548 22.4362 10.8129 21.4746 12.0703C20.4923 13.3549 19.1833 14.5551 17.7598 15.9473C14.9815 18.6644 11.917 21.9685 11.917 27.167L11.9316 27.7666C12.08 30.7528 13.3319 33.5867 15.4561 35.7109C17.6324 37.8871 20.5535 39.1429 23.6201 39.2393L23.6221 39.2402L24 39.25C24.1274 39.25 24.2541 39.2458 24.3799 39.2393C27.4466 39.1428 30.3687 37.8872 32.5449 35.7109C34.8107 33.445 36.0839 30.3714 36.084 27.167C36.084 21.9689 33.0194 18.6624 30.2412 15.9443C28.8178 14.5517 27.5088 13.3507 26.5264 12.0664C25.5647 10.8092 25.0001 9.57321 25 8.16699C25 7.61482 24.5521 7.16717 24 7.16699ZM24.0547 24.3232C25.0124 25.3387 25.7066 26.0679 26.1367 26.5068L26.501 26.8711C28.0855 28.3966 29.334 29.7284 29.334 31.917C29.3338 34.7202 27.0886 37.0955 24.2754 37.2422C24.1837 37.2447 24.092 37.25 24 37.25C23.9075 37.25 23.8149 37.2447 23.7227 37.2422C20.9107 37.0944 18.6672 34.7155 18.667 31.917C18.667 29.7218 19.9144 28.3873 21.5059 26.8643L21.5078 26.8623C22.3714 26.0309 23.2201 25.1837 24.0547 24.3232ZM22.6289 22.9209C21.8077 23.7678 20.9729 24.6017 20.123 25.4199C18.5479 26.9273 16.667 28.7923 16.667 31.917C16.667 32.8569 16.8513 33.7608 17.1836 34.5947C17.0776 34.4975 16.9723 34.399 16.8701 34.2969C15.0975 32.5242 14.0534 30.159 13.9297 27.667L13.917 27.167C13.917 23.3046 15.9148 20.6644 18.3232 18.209L22.6289 22.9209ZM24.001 11.8633C24.2745 12.3574 24.5917 12.8291 24.9375 13.2812C26.0331 14.7135 27.4957 16.0561 28.8428 17.374C31.606 20.0775 34.084 22.8655 34.084 27.167C34.0839 29.8411 33.0208 32.406 31.1299 34.2969C31.0282 34.3985 30.9229 34.4959 30.8174 34.5928C31.1488 33.7597 31.3339 32.8567 31.334 31.917C31.334 28.7987 29.4505 26.9343 27.8877 25.4297H27.8867C27.2711 24.8374 24.5736 21.9744 19.7539 16.7979C20.9241 15.6656 22.1269 14.5086 23.0625 13.2852C23.4091 12.8318 23.727 12.3588 24.001 11.8633Z" fill="currentColor"/>
</svg>
