<svg width="48" height="48" viewBox="0 0 48 48" fill="none" xmlns="http://www.w3.org/2000/svg">
<path d="M24 0C37.2548 0 48 10.7452 48 24C48 37.2548 37.2548 48 24 48C10.7452 48 0 37.2548 0 24C0 10.7452 10.7452 0 24 0ZM34.7402 16.5029C34.9726 14.7262 33.5033 13.2569 31.7266 13.4893C29.3616 13.7986 25.285 14.6532 22.6406 17.1055C21.8416 17.8466 21.1029 18.734 20.4424 19.6484L18.6533 19.3936C18.0303 19.3046 17.4011 19.515 16.9561 19.96L13.7744 23.1416C12.6091 24.3069 13.274 26.3029 14.9053 26.5361L17.749 26.9404C17.8844 27.1902 18.0562 27.4233 18.2617 27.6289L20.6006 29.9678C20.8059 30.173 21.0387 30.3442 21.2881 30.4795L21.6934 33.3242C21.9265 34.9556 23.9225 35.6204 25.0879 34.4551L28.2705 31.2734C28.7154 30.8284 28.9248 30.1991 28.8359 29.5762L28.5801 27.7871C29.4946 27.1265 30.3828 26.3889 31.124 25.5898C33.5766 22.9455 34.4309 18.8679 34.7402 16.5029ZM19.416 30.6748C19.0256 30.2846 18.3924 30.2847 18.002 30.6748L16.5879 32.0898C16.1975 32.4804 16.1974 33.1134 16.5879 33.5039C16.9784 33.8941 17.6115 33.8942 18.002 33.5039L19.416 32.0898C19.8065 31.6994 19.8064 31.0653 19.416 30.6748ZM17.2949 28.5537C16.9045 28.1633 16.2714 28.1635 15.8809 28.5537L13.0518 31.3828C12.6617 31.7734 12.6614 32.4065 13.0518 32.7969C13.4421 33.1872 14.0753 33.1869 14.4658 32.7969L17.2949 29.9678C17.6851 29.5773 17.6853 28.9441 17.2949 28.5537ZM26.8555 29.8594L23.6738 33.041L23.3457 30.751C23.5391 30.7033 23.7315 30.6372 23.918 30.5459C24.6468 30.1886 25.6536 29.6631 26.7344 29.0068L26.8555 29.8594ZM31.9863 15.4727C32.4604 15.4107 32.8188 15.7691 32.7568 16.2432C32.4538 18.5605 31.6532 22.0782 29.6582 24.2295C27.7985 26.2345 24.7602 27.9047 23.0381 28.749C22.7153 28.9072 22.308 28.8457 22.0156 28.5537L19.6758 26.2148C19.3837 25.9225 19.3223 25.5142 19.4805 25.1914C20.3248 23.4693 21.995 20.431 24 18.5713C26.1512 16.5763 29.669 15.7758 31.9863 15.4727ZM19.2217 21.4941C18.5654 22.575 18.0419 23.5826 17.6846 24.3115C17.5932 24.4979 17.5262 24.6895 17.4785 24.8828L15.1885 24.5557L18.3701 21.374L19.2217 21.4941ZM29.3311 18.8984C28.1596 17.727 26.2595 17.7272 25.0879 18.8984C23.9163 20.07 23.9164 21.97 25.0879 23.1416C26.2595 24.3132 28.1595 24.3132 29.3311 23.1416C30.5024 21.97 30.5025 20.0699 29.3311 18.8984ZM26.502 20.3135C26.8925 19.9231 27.5265 19.923 27.917 20.3135C28.307 20.7039 28.3071 21.3371 27.917 21.7275C27.5265 22.1181 26.8925 22.1181 26.502 21.7275C26.1116 21.3371 26.1118 20.704 26.502 20.3135Z" fill="currentColor"/>
</svg>
