<svg xmlns="http://www.w3.org/2000/svg" viewBox="0 0 56 56" width="48">
  <g transform="translate(-212 208)">
    <rect width="56" height="56" fill="#147bff" rx="6" transform="translate(212 -208)"></rect>
    <path fill="#fff" d="M233.843-157.99a6.322 6.322 0 0 1-3.425-.961 6.769 6.769 0 0 1-2.4-2.573 1.418 1.418 0 0 1-.218-.713 1.043 1.043 0 0 1 .4-.852 1.284 1.284 0 0 1 .806-.326 1.168 1.168 0 0 1 .635.186 1.991 1.991 0 0 1 .512.465 5.045 5.045 0 0 0 1.547 1.674 3.766 3.766 0 0 0 2.139.62 4.45 4.45 0 0 0 2.247-.558 4.167 4.167 0 0 0 1.55-1.535 4.294 4.294 0 0 0 .573-2.216v-13.981a1.152 1.152 0 0 1 .388-.883 1.346 1.346 0 0 1 .945-.356 1.238 1.238 0 0 1 .915.356 1.2 1.2 0 0 1 .356.883v13.981a6.645 6.645 0 0 1-.913 3.441 6.713 6.713 0 0 1-2.48 2.449 7.06 7.06 0 0 1-3.577.899Zm27.032-8.37a8.7 8.7 0 0 1-1.054 4.309 7.858 7.858 0 0 1-2.868 2.976 7.845 7.845 0 0 1-4.107 1.085 7.786 7.786 0 0 1-4.077-1.085 7.975 7.975 0 0 1-2.883-2.976 8.6 8.6 0 0 1-1.069-4.309 8.6 8.6 0 0 1 1.069-4.309 7.975 7.975 0 0 1 2.883-2.976 7.786 7.786 0 0 1 4.077-1.085 7.845 7.845 0 0 1 4.107 1.085 7.858 7.858 0 0 1 2.868 2.976 8.7 8.7 0 0 1 1.054 4.309Zm-2.48 0a6.612 6.612 0 0 0-.729-3.162 5.506 5.506 0 0 0-1.984-2.139 5.29 5.29 0 0 0-2.836-.775 5.313 5.313 0 0 0-2.821.775 5.467 5.467 0 0 0-2 2.139 6.612 6.612 0 0 0-.725 3.162 6.544 6.544 0 0 0 .729 3.131 5.582 5.582 0 0 0 2 2.154 5.235 5.235 0 0 0 2.821.791 5.212 5.212 0 0 0 2.836-.791 5.622 5.622 0 0 0 1.984-2.154 6.544 6.544 0 0 0 .73-3.131Z"></path>
  </g>
</svg>
