<svg xmlns="http://www.w3.org/2000/svg" width="107.355" height="25.999" viewBox="0 0 107.355 25.999">
  <path id="Path_101" data-name="Path 101" d="M45.39,23.442a6.3,6.3,0,0,1-2.3-5.027,8.494,8.494,0,0,1,1.422-4.309q.261-.433.544-.819,0-.11,0-.22a8.616,8.616,0,0,1,.221-1.977,7.082,7.082,0,0,1,.667-1.737,6.789,6.789,0,0,1,1.048-1.435A6.269,6.269,0,0,1,48.36,6.848a6.421,6.421,0,0,1,1.6-.664,7.177,7.177,0,0,1,1.774-.224V20.172a7.108,7.108,0,0,1-1.774-.226,6.438,6.438,0,0,1-1.6-.662,6.319,6.319,0,0,1-1.368-1.071,6.764,6.764,0,0,1-1.048-1.434,7.024,7.024,0,0,1-.6-1.492,10,10,0,0,0-.64,3.559,5.564,5.564,0,0,0,1.092,3.419q1.953,2.614,6.779,2.958.546.058,1.623.058a15.221,15.221,0,0,0,2.93-.387A14.02,14.02,0,0,0,60.7,23.614a9.334,9.334,0,0,0,4.8-5.056,5.052,5.052,0,0,0,.345-1.782,4.436,4.436,0,0,0-1.752-3.447,19.717,19.717,0,0,0-3.864-2,29.514,29.514,0,0,1-3.921-1.91,4.262,4.262,0,0,1-2.212-3.534,4.7,4.7,0,0,1,1.983-3.476Q58.92,0,64.12,0A9.29,9.29,0,0,1,68.1.733a3.2,3.2,0,0,1,1.882,2.2,2.943,2.943,0,0,1,.058.575A2.616,2.616,0,0,1,69,5.516a5.457,5.457,0,0,1-1.924.919q-.517.144-.575-.114-.057-.373.718-.46a1.8,1.8,0,0,0,1.695-1.379,2.283,2.283,0,0,0,.086-.6,2.63,2.63,0,0,0-.919-1.9A5.062,5.062,0,0,0,64.436.718a13.418,13.418,0,0,0-4.51.89,7.089,7.089,0,0,0-2.241,1.264A3.476,3.476,0,0,0,56.22,5.4q0,1.695,2.155,3.045.8.489,3.232,1.595a35.134,35.134,0,0,1,3.548,1.8A6.327,6.327,0,0,1,67.5,14.048a4.588,4.588,0,0,1,.646,2.183,5.455,5.455,0,0,1-.948,2.931,14.167,14.167,0,0,1-4.884,4.6A16.953,16.953,0,0,1,53.376,26,11.8,11.8,0,0,1,45.39,23.442ZM24.905,26a15.633,15.633,0,0,0,2.208-.149,10.975,10.975,0,0,0,1.924-.454,8.455,8.455,0,0,0,1.64-.755,7.5,7.5,0,0,0,1.356-1.058A7.029,7.029,0,0,0,33.1,22.224a8.346,8.346,0,0,0,.762-1.661,11.349,11.349,0,0,0,.456-1.964,15.894,15.894,0,0,0,.153-2.265V.131H51.734a16.409,16.409,0,0,0-3.725.421A13.954,13.954,0,0,0,44.683,1.8a13.13,13.13,0,0,0-2.808,1.99,12,12,0,0,0-1.15,1.234,12.847,12.847,0,0,0-.983,1.395,12.311,12.311,0,0,0-.785,1.522A11.97,11.97,0,0,0,38.4,9.557a12.9,12.9,0,0,0-.336,1.707,14.468,14.468,0,0,0,0,3.6,12.887,12.887,0,0,0,.336,1.708,12.032,12.032,0,0,0,.561,1.615,12.514,12.514,0,0,0,.785,1.523,12.83,12.83,0,0,0,.983,1.394,12.131,12.131,0,0,0,1.15,1.234,13.083,13.083,0,0,0,2.808,1.989,13.983,13.983,0,0,0,3.326,1.25,16.384,16.384,0,0,0,3.676.42ZM0,26V.131H27.5V16.76a5.545,5.545,0,0,1-.2,1.564,3.028,3.028,0,0,1-.6,1.138,2.46,2.46,0,0,1-.981.692,3.637,3.637,0,0,1-1.345.232,4.057,4.057,0,0,1-1.136-.162,4.565,4.565,0,0,1-1.093-.487,6.346,6.346,0,0,1-1.055-.81,9.256,9.256,0,0,1-1.015-1.136l-3.839,4.549a8.857,8.857,0,0,0,1.626,1.569A9.8,9.8,0,0,0,19.9,25.057,12.814,12.814,0,0,0,24.813,26Zm92.7-3.246a2.648,2.648,0,0,1-.8-2.04q0-.175.011-.353a11.425,11.425,0,0,1-1.275,1.732,2.936,2.936,0,0,1-2.1,1.322q-1.121,0-1.551-1.35a2.612,2.612,0,0,1-.087-.776,4.123,4.123,0,0,1,.33-1.379,15.084,15.084,0,0,1,1.049-2.1q.718-1.236.8-1.451a1.13,1.13,0,0,0,.086-.416q0-.89-2.3-.948l-.345.92q-.358.936-.71,1.751a.193.193,0,0,1,.049.131,4.606,4.606,0,0,1-.388.948q-.388.819-.775,1.536A10.822,10.822,0,0,1,83.6,21.89,4.287,4.287,0,0,1,80.064,23.5a2.96,2.96,0,0,1-2.312-.79,2.659,2.659,0,0,1-.7-1.824,5.578,5.578,0,0,1,.042-.677,9.939,9.939,0,0,1-.818,1.28,4.352,4.352,0,0,1-3.62,2.011,2.768,2.768,0,0,1-1.954-.747,2.648,2.648,0,0,1-.8-2.04,7.016,7.016,0,0,1,.618-2.744,10.5,10.5,0,0,1,1.68-2.7,6.452,6.452,0,0,1,2.442-1.824,3.168,3.168,0,0,1,1.264-.287,1.983,1.983,0,0,1,1.121.345,1.152,1.152,0,0,1,.488.89,4.323,4.323,0,0,1-2.068,3.3,6.156,6.156,0,0,1-1.782.876,6.025,6.025,0,0,1-1.752.388,5.692,5.692,0,0,0-.4,2.183,2.065,2.065,0,0,0,.36,1.278,1.2,1.2,0,0,0,1.02.474q2.614,0,4.74-4.913a.787.787,0,0,1,.261-.359,11.627,11.627,0,0,1,1.2-2.083,4.753,4.753,0,0,1,3.85-2.269,2.032,2.032,0,0,1,1.536.5,1.644,1.644,0,0,1,.474,1.163,2.12,2.12,0,0,1-.8,1.666,1.118,1.118,0,0,1-.675.373.648.648,0,0,1-.474-.2A3.5,3.5,0,0,0,84,14.737q0-.833-.689-.833-1.35,0-3.074,2.47a10.476,10.476,0,0,0-1.063,2.04,6.11,6.11,0,0,0-.517,2.283,2.957,2.957,0,0,0,.416,1.652,1.439,1.439,0,0,0,1.293.632,3.274,3.274,0,0,0,1.623-.416,3.858,3.858,0,0,0,.8-.61q.012-.031.029-.065a22.011,22.011,0,0,0,2.786-5.027,27.3,27.3,0,0,0,1.637-5.516q.173-.89.8-.89t.92.8a1.9,1.9,0,0,1,.086.6,3.134,3.134,0,0,1-1.637,2.442q.574.028,1.537.028t2.428-.144a1.071,1.071,0,0,1,.058.46,2.932,2.932,0,0,1-.345,1.106q-.344.733-.618,1.264l-.517,1.006q-.244.474-.546,1.163t-.5,1.264q-.718,2.183.23,2.183,1.073,0,3.056-3.8a8.831,8.831,0,0,1,.32-.872,10.516,10.516,0,0,1,1.681-2.7,6.452,6.452,0,0,1,2.442-1.824,3.168,3.168,0,0,1,1.264-.287,1.983,1.983,0,0,1,1.121.345,1.152,1.152,0,0,1,.488.89,4.322,4.322,0,0,1-2.069,3.3,6.142,6.142,0,0,1-1.781.876,6.029,6.029,0,0,1-1.752.388,5.679,5.679,0,0,0-.4,2.183,2.069,2.069,0,0,0,.359,1.278,1.2,1.2,0,0,0,1.02.474q2.484,0,4.528-4.437a44.072,44.072,0,0,1,1.878-5.359H99.8a.183.183,0,0,1-.186-.158.453.453,0,0,1,.028-.316.23.23,0,0,1,.215-.158h1.724q1.034-2.27,1.924-3.793a6.711,6.711,0,0,1,1.637-2.054,2.353,2.353,0,0,1,1.077-.532,1.4,1.4,0,0,1,.474.058,1.3,1.3,0,0,1,.661,1.307,5.861,5.861,0,0,1-.661,2.4q-.661,1.407-1.293,2.614h1.379a.183.183,0,0,1,.186.158.453.453,0,0,1-.028.316.23.23,0,0,1-.215.158h-1.666a20.865,20.865,0,0,1-3.82,4.74l-.661,2.931a3.241,3.241,0,0,0-.086.732,1.539,1.539,0,0,0,.2.733.671.671,0,0,0,.632.374,2.249,2.249,0,0,0,1.092-.345,12.813,12.813,0,0,0,3.045-4.338.541.541,0,0,1,.273-.316c.105-.038.167-.014.187.072a.808.808,0,0,1-.086.416,26.9,26.9,0,0,1-1.494,2.816q-1.552,2.5-3.3,2.5a1.855,1.855,0,0,1-1.465-.661A2.449,2.449,0,0,1,99,21.086a6.648,6.648,0,0,1,.052-.791,9.746,9.746,0,0,1-.77,1.194,4.352,4.352,0,0,1-3.62,2.011A2.767,2.767,0,0,1,92.7,22.752Zm3.132-6.981a14.731,14.731,0,0,0-1.724,2.7,4.528,4.528,0,0,0,1.422-.345,5.464,5.464,0,0,0,1.623-.919,3.8,3.8,0,0,0,1.58-2.844q0-.575-.46-.575Q97.472,13.789,95.836,15.772Zm-22.006,0a14.732,14.732,0,0,0-1.724,2.7,4.528,4.528,0,0,0,1.422-.345,5.464,5.464,0,0,0,1.623-.919,3.8,3.8,0,0,0,1.58-2.844q0-.575-.46-.575Q75.468,13.789,73.83,15.772Zm27.664,1.149a21.961,21.961,0,0,0,2.9-3.821h-1.35Q102.7,13.9,101.494,16.921ZM105.5,8.1a32.343,32.343,0,0,0-2.169,4.367h1.436q1.9-3.39,1.9-4.711c0-.383-.067-.575-.2-.575Q106.148,7.182,105.5,8.1Z" fill="#2a3943"/>
</svg>
