<svg xmlns="http://www.w3.org/2000/svg" xmlns:xlink="http://www.w3.org/1999/xlink" width="35.456" height="32.143" viewBox="0 0 35.456 32.143">
  <defs>
    <clipPath id="clip-path">
      <path id="Subtraction_28" data-name="Subtraction 28" d="M11.216,22.433A11.216,11.216,0,1,1,22.433,11.216,11.229,11.229,0,0,1,11.216,22.433Zm0-16.825a5.608,5.608,0,1,0,5.608,5.608A5.615,5.615,0,0,0,11.216,5.608Z" transform="translate(0)" fill="#0b7bff"/>
    </clipPath>
    <filter id="Union_6" x="-6" y="-6" width="30.631" height="44.143" filterUnits="userSpaceOnUse">
      <feOffset input="SourceAlpha"/>
      <feGaussianBlur stdDeviation="2" result="blur"/>
      <feFlood flood-opacity="0.502"/>
      <feComposite operator="in" in2="blur"/>
      <feComposite in="SourceGraphic"/>
    </filter>
  </defs>
  <g id="Group_2" data-name="Group 2" transform="translate(-1262.834 -243.132)">
    <path id="Subtraction_24" data-name="Subtraction 24" d="M11.216,22.433A11.216,11.216,0,1,1,22.433,11.216,11.229,11.229,0,0,1,11.216,22.433Zm0-16.825a5.608,5.608,0,1,0,5.608,5.608A5.615,5.615,0,0,0,11.216,5.608Z" transform="translate(1275.857 252.842)" fill="#0b7bff"/>
    <path id="Union_5" data-name="Union 5" d="M7.415,32.143A11.169,11.169,0,0,1,0,29.336a11.17,11.17,0,0,1,7.415-2.8,5.614,5.614,0,0,0,5.608-5.608h5.608a11.193,11.193,0,0,1-3.8,8.409h0a11.174,11.174,0,0,1-6.2,2.741h0l-.068.007h0q-.211.021-.423.035h0l-.065,0H8.052l-.054,0h-.02l-.05,0H7.907l-.047,0H7.835l-.045,0H7.415Zm5.608-11.216V9.71A11.222,11.222,0,0,1,18.631,0V20.927Z" transform="translate(1262.834 243.132)" fill="#0b7bff"/>
    <g id="Mask_Group_2" data-name="Mask Group 2" transform="translate(1275.857 252.842)" clip-path="url(#clip-path)">
      <g transform="matrix(1, 0, 0, 1, -13.02, -9.71)" filter="url(#Union_6)">
        <path id="Union_6-2" data-name="Union 6" d="M7.415,32.143A11.169,11.169,0,0,1,0,29.336a11.17,11.17,0,0,1,7.415-2.8,5.614,5.614,0,0,0,5.608-5.608h5.608a11.193,11.193,0,0,1-3.8,8.409h0a11.174,11.174,0,0,1-6.2,2.741h0l-.068.007h0q-.211.021-.423.035h0l-.065,0H8.052l-.054,0h-.02l-.05,0H7.907l-.047,0H7.835l-.045,0H7.415Zm5.608-11.216V9.71A11.222,11.222,0,0,1,18.631,0V20.927Z" transform="translate(0)" fill="#0b7bff"/>
      </g>
    </g>
  </g>
</svg>
