<svg xmlns="http://www.w3.org/2000/svg" width="106.998" height="53.499" viewBox="0 0 106.998 53.499">
  <path id="Logo" d="M4198.9,4856.5H4143.51a32.273,32.273,0,0,0,4.566-.31,22.624,22.624,0,0,0,3.98-.938,17.382,17.382,0,0,0,3.392-1.562,15.423,15.423,0,0,0,2.805-2.187,14.579,14.579,0,0,0,2.2-2.81,17.234,17.234,0,0,0,1.575-3.436,23.444,23.444,0,0,0,.943-4.061,33.026,33.026,0,0,0,.315-4.684V4803H4199a33.88,33.88,0,0,0-7.7.87,28.834,28.834,0,0,0-6.881,2.584,27.175,27.175,0,0,0-5.807,4.114,24.873,24.873,0,0,0-2.378,2.555,26.221,26.221,0,0,0-2.032,2.884,25.446,25.446,0,0,0-1.624,3.147,24.888,24.888,0,0,0-1.16,3.339,26.868,26.868,0,0,0-.7,3.531,30.019,30.019,0,0,0,0,7.449,26.781,26.781,0,0,0,.7,3.532,25.01,25.01,0,0,0,1.16,3.341,25.732,25.732,0,0,0,1.624,3.148,26.215,26.215,0,0,0,2.032,2.883,25.16,25.16,0,0,0,2.378,2.553,27.055,27.055,0,0,0,5.807,4.114,28.855,28.855,0,0,0,6.881,2.584,33.912,33.912,0,0,0,7.6.871Zm-55.576,0H4092V4803h56.88v34.391a11.475,11.475,0,0,1-.413,3.233,6.251,6.251,0,0,1-1.242,2.354,5.1,5.1,0,0,1-2.029,1.431,7.531,7.531,0,0,1-2.782.479,8.38,8.38,0,0,1-2.349-.336,9.459,9.459,0,0,1-2.262-1.007,13.1,13.1,0,0,1-2.181-1.675,19.182,19.182,0,0,1-2.1-2.347l-7.938,9.407a18.3,18.3,0,0,0,3.364,3.244,20.269,20.269,0,0,0,4.205,2.377,26.511,26.511,0,0,0,10.167,1.948ZM4199,4844.445h0a14.7,14.7,0,0,1-3.67-.468,13.327,13.327,0,0,1-3.31-1.368,13.1,13.1,0,0,1-2.83-2.216,13.972,13.972,0,0,1-2.167-2.964,14.634,14.634,0,0,1-1.38-3.592,18.513,18.513,0,0,1,0-8.176,14.6,14.6,0,0,1,1.38-3.592,14,14,0,0,1,2.167-2.968,12.981,12.981,0,0,1,2.83-2.212,13.321,13.321,0,0,1,3.31-1.373,14.822,14.822,0,0,1,3.67-.464Z" transform="translate(-4092.001 -4802.999)" fill="#0b7bff"/>
</svg>
