<svg xmlns="http://www.w3.org/2000/svg" width="35.456" height="32.143"><defs><clipPath id="a"><path data-name="Subtraction 28" d="M11.216 22.433a11.216 11.216 0 1111.217-11.217 11.229 11.229 0 01-11.217 11.217zm0-16.825a5.608 5.608 0 105.608 5.608 5.615 5.615 0 00-5.608-5.608z" fill="#0b7bff"/></clipPath><filter id="b" x="-6" y="-6" width="30.631" height="44.143" filterUnits="userSpaceOnUse"><feOffset/><feGaussianBlur stdDeviation="2" result="blur"/><feFlood flood-opacity=".502"/><feComposite operator="in" in2="blur"/><feComposite in="SourceGraphic"/></filter></defs><g data-name="Group 2"><path data-name="Subtraction 24" d="M24.239 32.143a11.216 11.216 0 1111.217-11.217 11.229 11.229 0 01-11.217 11.217zm0-16.825a5.608 5.608 0 105.608 5.608 5.615 5.615 0 00-5.608-5.608z" fill="#0b7bff"/><path data-name="Union 5" d="M7.415 32.143A11.169 11.169 0 010 29.336a11.17 11.17 0 017.415-2.8 5.614 5.614 0 005.608-5.608h5.608a11.193 11.193 0 01-3.8 8.409 11.174 11.174 0 01-6.2 2.741l-.068.007q-.211.021-.423.035h-.725zm5.608-11.216V9.71A11.222 11.222 0 0118.631 0v20.927z" fill="#0b7bff"/><g data-name="Mask Group 2" transform="translate(13.023 9.71)" clip-path="url(#a)"><g transform="translate(-13.02 -9.71)" filter="url(#b)"><path data-name="Union 6" d="M7.415 32.143A11.169 11.169 0 010 29.336a11.17 11.17 0 017.415-2.8 5.614 5.614 0 005.608-5.608h5.608a11.193 11.193 0 01-3.8 8.409 11.174 11.174 0 01-6.2 2.741l-.068.007q-.211.021-.423.035h-.725zm5.608-11.216V9.71A11.222 11.222 0 0118.631 0v20.927z" fill="#0b7bff"/></g></g></g></svg>